HIERARCHY
ROOT Hips
{
    OFFSET 0.000000 0.000000 0.000000
    CHANNELS 6 Xposition Yposition Zposition Zrotation Yrotation Xrotation
    JOINT Chest
    {
        OFFSET 0.000000 1.634758 -0.000000
        CHANNELS 3 Zrotation Yrotation Xrotation
        JOINT Chest2
        {
            OFFSET 0.000000 2.197341 0.000000
            CHANNELS 3 Zrotation Yrotation Xrotation
            JOINT Neck
            {
                OFFSET 0.000000 0.961544 0.000000
                CHANNELS 3 Zrotation Yrotation Xrotation
                JOINT Head
                {
                    OFFSET 0.000000 0.632542 -0.032565
                    CHANNELS 3 Zrotation Yrotation Xrotation
                    End Site
                    {
                        OFFSET -0.000001 0.439502 2.922845
                    }
                }
            }
            JOINT LeftCollar
            {
                OFFSET 0.167536 0.778237 -0.168280
                CHANNELS 3 Zrotation Yrotation Xrotation
                JOINT LeftShoulder
                {
                    OFFSET 0.831514 -0.002900 0.006458
                    CHANNELS 3 Zrotation Yrotation Xrotation
                    JOINT LeftElbow
                    {
                        OFFSET 2.272872 -0.026639 0.059314
                        CHANNELS 3 Zrotation Yrotation Xrotation
                        JOINT LeftWrist
                        {
                            OFFSET 2.081982 -0.024402 0.054333
                            CHANNELS 3 Zrotation Yrotation Xrotation
                            JOINT LeftHandThumb1
                            {
                                OFFSET 0.218903 -0.128645 0.283837
                                CHANNELS 3 Zrotation Yrotation Xrotation
                                JOINT LeftHandThumb2
                                {
                                    OFFSET 0.137157 -0.025101 0.077902
                                    CHANNELS 3 Zrotation Yrotation Xrotation
                                    JOINT LeftHandThumb3
                                    {
                                        OFFSET 0.165861 -0.067014 0.039226
                                        CHANNELS 3 Zrotation Yrotation Xrotation
                                        End Site
                                        {
                                            OFFSET 0.241157 -0.045065 0.107930
                                        }
                                    }
                                }
                            }
                            JOINT LeftHandFore1
                            {
                                OFFSET 0.767340 -0.016076 0.196678
                                CHANNELS 3 Zrotation Yrotation Xrotation
                                JOINT LeftHandFore2
                                {
                                    OFFSET 0.215173 -0.024035 0.010864
                                    CHANNELS 3 Zrotation Yrotation Xrotation
                                    JOINT LeftHandFore3
                                    {
                                        OFFSET 0.127998 -0.018363 0.006493
                                        CHANNELS 3 Zrotation Yrotation Xrotation
                                        End Site
                                        {
                                            OFFSET 0.191872 -0.022849 0.005461
                                        }
                                    }
                                }
                            }
                            JOINT LeftHandMiddle1
                            {
                                OFFSET 0.709887 -0.008320 0.018526
                                CHANNELS 3 Zrotation Yrotation Xrotation
                                JOINT LeftHandMiddle2
                                {
                                    OFFSET 0.243305 -0.028680 0.006624
                                    CHANNELS 3 Zrotation Yrotation Xrotation
                                    JOINT LeftHandMiddle3
                                    {
                                        OFFSET 0.145223 -0.016669 0.003951
                                        CHANNELS 3 Zrotation Yrotation Xrotation
                                        End Site
                                        {
                                            OFFSET 0.233621 -0.031666 0.006995
                                        }
                                    }
                                }
                            }
                            JOINT LeftHandRing1
                            {
                                OFFSET 0.743817 -0.005823 -0.153668
                                CHANNELS 3 Zrotation Yrotation Xrotation
                                JOINT LeftHandRing2
                                {
                                    OFFSET 0.349394 -0.050632 -0.009675
                                    CHANNELS 3 Zrotation Yrotation Xrotation
                                    JOINT LeftHandRing3
                                    {
                                        OFFSET 0.134332 -0.023631 0.001421
                                        CHANNELS 3 Zrotation Yrotation Xrotation
                                        End Site
                                        {
                                            OFFSET 0.116893 -0.027460 0.001278
                                        }
                                    }
                                }
                            }
                            JOINT LeftHandLittle1
                            {
                                OFFSET 0.689408 -0.053302 -0.308304
                                CHANNELS 3 Zrotation Yrotation Xrotation
                                JOINT LeftHandLittle2
                                {
                                    OFFSET 0.193251 -0.018757 -0.018874
                                    CHANNELS 3 Zrotation Yrotation Xrotation
                                    JOINT LeftHandLittle3
                                    {
                                        OFFSET 0.116994 -0.025997 -0.011519
                                        CHANNELS 3 Zrotation Yrotation Xrotation
                                        End Site
                                        {
                                            OFFSET 0.189726 -0.012367 -0.011818
                                        }
                                    }
                                }
                            }
                        }
                    }
                }
            }
            JOINT RightCollar
            {
                OFFSET -0.167536 0.778237 -0.168280
                CHANNELS 3 Zrotation Yrotation Xrotation
                JOINT RightShoulder
                {
                    OFFSET -0.831514 -0.002900 0.006457
                    CHANNELS 3 Zrotation Yrotation Xrotation
                    JOINT RightElbow
                    {
                        OFFSET -2.272872 -0.026639 0.059313
                        CHANNELS 3 Zrotation Yrotation Xrotation
                        JOINT RightWrist
                        {
                            OFFSET -2.081982 -0.024402 0.054331
                            CHANNELS 3 Zrotation Yrotation Xrotation
                            JOINT RightHandThumb1
                            {
                                OFFSET -0.218911 -0.128571 0.283837
                                CHANNELS 3 Zrotation Yrotation Xrotation
                                JOINT RightHandThumb2
                                {
                                    OFFSET -0.137157 -0.025101 0.077902
                                    CHANNELS 3 Zrotation Yrotation Xrotation
                                    JOINT RightHandThumb3
                                    {
                                        OFFSET -0.165861 -0.067014 0.039226
                                        CHANNELS 3 Zrotation Yrotation Xrotation
                                        End Site
                                        {
                                            OFFSET -0.229436 -0.065997 0.121819
                                        }
                                    }
                                }
                            }
                            JOINT RightHandFore1
                            {
                                OFFSET -0.767344 -0.015991 0.196679
                                CHANNELS 3 Zrotation Yrotation Xrotation
                                JOINT RightHandFore2
                                {
                                    OFFSET -0.008530 -0.215939 0.017165
                                    CHANNELS 3 Zrotation Yrotation Xrotation
                                    JOINT RightHandFore3
                                    {
                                        OFFSET 0.129000 -0.005958 -0.009251
                                        CHANNELS 3 Zrotation Yrotation Xrotation
                                        End Site
                                        {
                                            OFFSET 0.072516 0.178005 -0.020547
                                        }
                                    }
                                }
                            }
                            JOINT RightHandMiddle1
                            {
                                OFFSET -0.709887 -0.008302 0.018525
                                CHANNELS 3 Zrotation Yrotation Xrotation
                                JOINT RightHandMiddle2
                                {
                                    OFFSET -0.044734 -0.240877 0.006250
                                    CHANNELS 3 Zrotation Yrotation Xrotation
                                    JOINT RightHandMiddle3
                                    {
                                        OFFSET 0.132608 -0.060907 -0.009467
                                        CHANNELS 3 Zrotation Yrotation Xrotation
                                        End Site
                                        {
                                            OFFSET 0.114833 0.205731 -0.010876
                                        }
                                    }
                                }
                            }
                            JOINT RightHandRing1
                            {
                                OFFSET -0.743819 -0.005785 -0.153669
                                CHANNELS 3 Zrotation Yrotation Xrotation
                                JOINT RightHandRing2
                                {
                                    OFFSET -0.057577 -0.347778 -0.021640
                                    CHANNELS 3 Zrotation Yrotation Xrotation
                                    JOINT RightHandRing3
                                    {
                                        OFFSET 0.135242 0.003470 -0.017388
                                        CHANNELS 3 Zrotation Yrotation Xrotation
                                        End Site
                                        {
                                            OFFSET 0.027390 0.116663 0.007722
                                        }
                                    }
                                }
                            }
                            JOINT RightHandLittle1
                            {
                                OFFSET -0.689403 -0.053298 -0.308303
                                CHANNELS 3 Zrotation Yrotation Xrotation
                                JOINT RightHandLittle2
                                {
                                    OFFSET -0.115938 -0.156300 -0.013561
                                    CHANNELS 3 Zrotation Yrotation Xrotation
                                    JOINT RightHandLittle3
                                    {
                                        OFFSET 0.119816 -0.008245 0.008462
                                        CHANNELS 3 Zrotation Yrotation Xrotation
                                        End Site
                                        {
                                            OFFSET 0.106038 0.156613 0.022736
                                        }
                                    }
                                }
                            }
                        }
                    }
                }
            }
        }
    }
    JOINT LeftHip
    {
        OFFSET 0.685143 0.673822 -0.044491
        CHANNELS 3 Zrotation Yrotation Xrotation
        JOINT LeftKnee
        {
            OFFSET 0.085364 -3.750208 0.017676
            CHANNELS 3 Zrotation Yrotation Xrotation
            JOINT LeftAnkle
            {
                OFFSET 0.094583 -4.155206 0.019585
                CHANNELS 3 Zrotation Yrotation Xrotation
                JOINT LeftToe
                {
                    OFFSET -0.000000 -0.395925 0.621478
                    CHANNELS 3 Zrotation Yrotation Xrotation
                    End Site
                    {
                        OFFSET -0.000000 -0.077878 0.321152
                    }
                }
            }
        }
    }
    JOINT RightHip
    {
        OFFSET -0.685143 0.673822 -0.044492
        CHANNELS 3 Zrotation Yrotation Xrotation
        JOINT RightKnee
        {
            OFFSET -0.085364 -3.750208 0.017677
            CHANNELS 3 Zrotation Yrotation Xrotation
            JOINT RightAnkle
            {
                OFFSET -0.094583 -4.155206 0.019585
                CHANNELS 3 Zrotation Yrotation Xrotation
                JOINT RightToe
                {
                    OFFSET -0.000000 -0.395925 0.621478
                    CHANNELS 3 Zrotation Yrotation Xrotation
                    End Site
                    {
                        OFFSET -0.000000 -0.077878 0.321152
                    }
                }
            }
        }
    }
}
MOTION
Frames: 4
Frame Time: 0.033333
-0.935199 8.722452 -2.274943 -163.174255 -18.689058 164.689240 11.124641 -4.042064 13.513608 -0.672381 0.658279 -4.247628 17.225229 -5.645032 4.683312 0.486834 -9.371540 11.354439 -9.732781 -9.958300 0.088391 -56.023499 -11.421669 1.724739 0.509142 -55.515179 -0.974733 50.459435 15.052472 -3.670321 -0.000014 0.000009 -0.000009 0.000000 -0.000000 0.000002 0.000003 0.000001 -0.000003 -0.000009 0.000018 -0.000010 -0.000002 -0.000003 0.000000 -0.000002 0.000001 0.000000 -10.278228 -0.220678 0.362480 0.000000 -0.000001 -0.000002 0.000000 -0.000001 -0.000002 -12.068434 -0.136569 0.907441 -0.000003 -0.000003 -0.000002 0.000000 0.000003 -0.000002 -0.000002 0.000021 -0.000003 -0.000002 -0.000001 -0.000002 0.000002 -0.000001 -0.000003 -3.699787 11.653279 0.002877 97.629738 72.176437 33.417229 -1.558704 72.568390 -2.130350 -51.645306 -11.246805 11.759092 0.000003 0.000003 -0.000003 -0.000002 -0.000005 0.000004 0.000002 -0.000000 0.000004 0.047653 0.001373 -0.000191 0.055546 0.005468 0.002913 0.041709 0.004206 0.002778 0.042599 0.001113 0.001239 0.044461 0.000702 0.003315 0.049129 0.000492 0.003928 0.042494 0.001223 0.002967 0.057292 -0.004595 0.005464 0.042034 -0.003533 0.006108 0.028179 0.001383 0.000489 1.870724 -0.254904 -0.046457 1.099842 -0.135487 -0.050389 19.856815 -2.136403 14.168184 0.000000 0.000002 0.000000 -0.389493 2.745933 -8.126663 -0.000001 -0.000007 -0.000004 41.097134 3.584597 -6.681623 0.000001 -0.000000 0.000000 -24.563303 -23.916939 13.941276 -0.000001 -0.000004 0.000005
-1.094983 8.722082 -2.282195 -162.959518 -20.693485 164.406174 10.873271 -5.912648 13.015861 -0.564167 0.944416 -4.058441 20.721975 -6.672556 3.984280 0.566031 -10.862270 10.297626 -9.851326 -10.206094 0.137710 -55.541672 -11.670970 2.460876 0.470887 -54.183556 -0.927841 42.855659 14.769951 -4.217387 -0.000003 0.000007 -0.000020 0.000000 0.000003 0.000000 -0.000002 -0.000000 0.000005 0.000005 0.000009 -0.000005 -0.000002 0.000003 0.000003 -0.000002 0.000003 0.000000 -14.600330 -0.299259 0.512951 -0.000009 -0.000002 -0.000002 0.000007 0.000002 -0.000002 -17.143375 -0.174430 1.285858 -0.000003 0.000003 0.000000 0.000000 -0.000002 0.000002 0.000005 0.000011 0.000003 0.000003 0.000002 -0.000002 -0.000002 -0.000000 -0.000002 -4.395272 11.825560 0.031756 98.134377 76.532837 31.564739 -1.053642 67.213150 -1.592726 -62.677471 -8.668450 14.904475 0.000000 -0.000017 0.000000 -0.000001 0.000002 -0.000000 0.000002 0.000002 0.000003 0.047661 0.001366 -0.000185 0.055547 0.005461 0.002913 0.041709 0.004211 0.002780 0.042603 0.001096 0.001247 0.044461 0.000707 0.003315 0.049126 0.000490 0.003928 0.042501 0.001214 0.002973 0.057289 -0.004597 0.005462 0.042033 -0.003531 0.006108 0.028190 0.001366 0.000496 1.870722 -0.254905 -0.046456 1.099840 -0.135487 -0.050389 19.009874 -2.002209 13.968045 0.000000 -0.000000 -0.000000 0.610379 3.759248 -8.453475 -0.000001 -0.000007 0.000001 44.163448 4.736220 -8.701084 -0.000001 -0.000000 -0.000002 -26.831335 -26.180864 17.007534 -0.000003 -0.000016 0.000003
-1.256037 8.721572 -2.288290 -162.771667 -22.532497 164.160507 10.635052 -7.622192 12.546762 -0.460159 1.204582 -3.883048 24.413952 -7.596494 3.241950 0.639063 -12.223944 9.200223 -9.937539 -10.424462 0.183147 -55.112812 -11.762775 3.277982 0.450666 -53.432873 -0.902717 36.914528 15.442099 -6.073977 -0.000005 0.000012 0.000000 0.000003 0.000002 -0.000002 -0.000005 0.000002 0.000000 -0.000009 0.000007 -0.000003 -0.000002 0.000002 0.000003 -0.000003 -0.000005 0.000000 -18.922743 -0.369596 0.661350 -0.000002 -0.000000 0.000000 0.000002 0.000002 0.000003 -22.218668 -0.201030 1.660930 0.000000 0.000005 0.000001 0.000000 -0.000000 0.000000 0.000002 0.000012 0.000010 -0.000002 -0.000003 -0.000005 0.000000 -0.000003 0.000003 -4.014054 12.110568 0.041311 87.184471 77.394485 24.174400 -0.805524 63.101009 -1.319216 -60.411884 -11.833864 13.684019 -0.000003 -0.000014 -0.000011 0.000000 -0.000002 0.000004 0.000003 -0.000005 0.000000 0.047654 0.001364 -0.000187 0.055544 0.005462 0.002914 0.041712 0.004202 0.002777 0.042593 0.001095 0.001244 0.044462 0.000709 0.003313 0.049130 0.000492 0.003927 0.042501 0.001195 0.002971 0.057292 -0.004597 0.005463 0.042036 -0.003530 0.006105 0.028175 0.001364 0.000498 1.870723 -0.254905 -0.046455 1.099846 -0.135487 -0.050390 18.128967 -1.853952 13.867590 0.000000 -0.000002 0.000000 1.699808 3.791681 -8.863758 0.000000 -0.000002 -0.000000 46.019402 5.637721 -10.138986 -0.000000 -0.000000 0.000001 -27.807369 -28.007292 19.315609 0.000001 0.000005 -0.000007
-1.416212 8.721033 -2.293479 -162.611130 -24.177759 163.952347 10.421023 -9.124295 12.117601 -0.363522 1.431849 -3.732550 28.041679 -8.388045 2.478409 0.703182 -13.408099 8.084842 -10.006782 -10.607292 0.223357 -54.759361 -11.734678 4.145087 0.441864 -53.096191 -0.891734 34.396191 15.370913 -7.185143 -0.000017 0.000002 -0.000003 0.000003 0.000005 0.000007 -0.000005 -0.000000 0.000000 -0.000019 0.000007 -0.000003 0.000003 0.000003 0.000000 -0.000003 -0.000002 -0.000002 -22.894958 -0.427103 0.795362 -0.000005 -0.000002 0.000001 0.000003 0.000002 0.000001 -26.882774 -0.215824 2.001805 0.000003 0.000003 0.000000 -0.000002 -0.000000 -0.000001 -0.000010 0.000014 -0.000002 0.000002 0.000002 0.000002 -0.000003 0.000003 -0.000002 -3.086663 12.460085 0.031075 72.277458 76.482140 16.829317 -0.634386 59.216087 -1.123650 -55.695347 -20.605356 11.519293 0.000015 0.000002 0.000000 0.000000 -0.000000 -0.000000 -0.000001 -0.000005 -0.000000 0.047659 0.001369 -0.000189 0.055547 0.005457 0.002913 0.041709 0.004211 0.002776 0.042604 0.001105 0.001245 0.044462 0.000707 0.003313 0.049130 0.000485 0.003926 0.042499 0.001207 0.002966 0.057292 -0.004595 0.005464 0.042033 -0.003533 0.006107 0.028194 0.001371 0.000496 1.870724 -0.254900 -0.046455 1.099846 -0.135494 -0.050394 17.236076 -1.692651 13.866957 0.000000 -0.000000 0.000000 2.806871 3.363556 -9.336900 0.000000 0.000002 -0.000001 47.300671 6.154103 -11.178650 0.000001 -0.000000 -0.000001 -28.186558 -29.219372 20.895655 -0.000001 -0.000002 0.000004
